<?xml version="1.0" encoding="iso-8859-1"?>
<!-- Generator: Adobe Illustrator 18.1.1, SVG Export Plug-In . SVG Version: 6.00 Build 0)  -->
<svg version="1.1" id="Capa_1" xmlns="http://www.w3.org/2000/svg" xmlns:xlink="http://www.w3.org/1999/xlink" x="0px" y="0px"
	 viewBox="0 0 52.666 52.666" style="enable-background:new 0 0 52.666 52.666;" xml:space="preserve">
<g>
	<path style="fill:#010002;" d="M26.332,0C11.79,0,0,11.789,0,26.333s11.789,26.333,26.332,26.333s26.334-11.79,26.334-26.333
		S40.875,0,26.332,0z M26.332,46C15.471,46,6.666,37.195,6.666,26.333S15.471,6.666,26.332,6.666S46,15.471,46,26.333
		S37.194,46,26.332,46z"/>
	<g>
		<path style="fill:#010002;" d="M40.084,27.833H26.333c-0.829,0-1.5-0.671-1.5-1.5v-11c0-0.829,0.671-1.5,1.5-1.5
			s1.5,0.671,1.5,1.5v9.5h12.251c0.829,0,1.5,0.671,1.5,1.5C41.584,27.162,40.913,27.833,40.084,27.833z"/>
	</g>
</g>
<g>
</g>
<g>
</g>
<g>
</g>
<g>
</g>
<g>
</g>
<g>
</g>
<g>
</g>
<g>
</g>
<g>
</g>
<g>
</g>
<g>
</g>
<g>
</g>
<g>
</g>
<g>
</g>
<g>
</g>
</svg>
